<?xml version="1.0" encoding="UTF-8" standalone="no"?><svg xmlns="http://www.w3.org/2000/svg" xmlns:xlink="http://www.w3.org/1999/xlink" fill="#ffffff" height="25" preserveAspectRatio="xMidYMid meet" version="1" viewBox="0.0 0.0 231.0 231.0" width="25" zoomAndPan="magnify"><g id="change1_1"><path d="M115.5,89.9c-14.1,0-25.6,11.5-25.6,25.6c0,14.1,11.5,25.6,25.6,25.6c14.1,0,25.6-11.5,25.6-25.6 C141.1,101.4,129.6,89.9,115.5,89.9z"/><path d="M149.9,52.7H81.1c-15.6,0-28.4,12.7-28.4,28.4v68.8c0,15.6,12.7,28.4,28.4,28.4h68.8c15.6,0,28.4-12.7,28.4-28.4V81.1 C178.2,65.4,165.5,52.7,149.9,52.7z M115.5,154c-21.3,0-38.6-17.3-38.6-38.6c0-21.3,17.3-38.6,38.6-38.6 c21.3,0,38.6,17.3,38.6,38.6C154,136.7,136.7,154,115.5,154z M156.8,83.3c-5.1,0-9.3-4.2-9.3-9.3c0-5.1,4.2-9.3,9.3-9.3 c5.1,0,9.3,4.2,9.3,9.3C166.1,79.2,162,83.3,156.8,83.3z"/><path d="M115.5,0C51.7,0,0,51.7,0,115.5c0,63.8,51.7,115.5,115.5,115.5c63.8,0,115.5-51.7,115.5-115.5C230.9,51.7,179.2,0,115.5,0z M191.2,149.9c0,22.8-18.6,41.4-41.4,41.4H81.1c-22.8,0-41.4-18.6-41.4-41.4V81.1c0-22.8,18.6-41.4,41.4-41.4h68.8 c22.8,0,41.4,18.6,41.4,41.4V149.9z"/></g></svg>