<?xml version="1.0" encoding="UTF-8" standalone="no"?><svg xmlns="http://www.w3.org/2000/svg" xmlns:xlink="http://www.w3.org/1999/xlink" fill="#ffffff" height="30.9" preserveAspectRatio="xMidYMid meet" version="1" viewBox="0.0 0.0 36.7 30.9" width="36.7" zoomAndPan="magnify"><g id="change1_1"><path d="M2,17.21c-1.1,0-2-0.9-2-2V2c0-1.1,0.9-2,2-2s2,0.9,2,2v13.21C4,16.31,3.1,17.21,2,17.21z" fill="inherit"/></g><g id="change1_3"><path d="M10.74,19.22c-0.25,0-0.51-0.05-0.76-0.15c-1.02-0.42-1.51-1.59-1.09-2.61l5-12.22c0.42-1.02,1.59-1.51,2.61-1.09 c1.02,0.42,1.51,1.59,1.09,2.61l-5,12.22C12.28,18.75,11.53,19.22,10.74,19.22z" fill="inherit"/></g><g id="change1_2"><path d="M18.21,24.02c-0.55,0-1.1-0.23-1.49-0.67c-0.73-0.83-0.66-2.09,0.16-2.82l9.87-8.78c0.83-0.73,2.09-0.66,2.82,0.16 c0.73,0.83,0.66,2.09-0.17,2.82l-9.87,8.78C19.16,23.85,18.69,24.02,18.21,24.02z" fill="inherit"/></g><g id="change1_4"><path d="M21.64,30.87c-0.91,0-1.74-0.63-1.95-1.56c-0.25-1.08,0.43-2.15,1.5-2.4l12.88-2.94c1.07-0.25,2.15,0.43,2.4,1.5 c0.25,1.08-0.43,2.15-1.5,2.4l-12.88,2.94C21.94,30.86,21.79,30.87,21.64,30.87z" fill="inherit"/></g></svg>