<?xml version="1.0" encoding="UTF-8" standalone="no"?><svg xmlns="http://www.w3.org/2000/svg" xmlns:xlink="http://www.w3.org/1999/xlink" fill="#000000" height="320" preserveAspectRatio="xMidYMid meet" version="1" viewBox="-2.9 0.0 353.1 499.9" width="225" zoomAndPan="magnify"><defs><clipPath id="a"><path d="M 76 0 L 237 0 L 237 499.859375 L 76 499.859375 Z M 76 0"/></clipPath><clipPath id="b"><path d="M 118 131 L 350.199219 131 L 350.199219 346 L 118 346 Z M 118 131"/></clipPath></defs><g><g clip-path="url(#a)" id="change1_3"><path d="M 168.601562 8.667969 C 166.503906 6.765625 156.800781 -1.234375 144.203125 0.167969 C 135.902344 1.066406 129.601562 5.765625 127.402344 7.566406 C 122.703125 11.46875 123.101562 13.265625 117.601562 17.667969 C 111.703125 22.367188 109.300781 21.765625 104.703125 25.566406 C 104.703125 25.566406 98.300781 30.867188 95.503906 39.066406 C 90.101562 54.765625 103.003906 70.566406 103.902344 71.667969 C 109.300781 73.667969 115.203125 75.46875 121.703125 76.867188 C 150.003906 82.96875 174.800781 78.265625 190.800781 73.367188 C 199.203125 63.367188 199.902344 56.667969 198.902344 52.265625 C 197.902344 47.867188 195.300781 46.667969 194.402344 41.066406 C 193.203125 33.765625 196.902344 31.96875 196.300781 25.566406 C 195.601562 17.867188 189.402344 9.167969 180.703125 7.265625 C 175.300781 5.96875 170.703125 7.667969 168.601562 8.667969 Z M 93.003906 390.667969 L 184.300781 359.964844 L 219.203125 368.066406 L 236.101562 430.964844 C 234.101562 452.566406 232.203125 474.265625 230.203125 495.867188 C 219.902344 498.167969 206.402344 500.066406 190.703125 499.667969 C 179.203125 499.367188 169.101562 497.867188 160.703125 496.066406 L 156.601562 474.066406 C 153.902344 481.464844 151.203125 488.964844 148.402344 496.367188 C 136.703125 498.667969 121.800781 500.464844 104.601562 499.667969 C 94.101562 499.167969 84.800781 497.765625 76.703125 496.167969 L 78.300781 447.265625 L 93.003906 390.667969" fill="#293241"/></g><g id="change2_1"><path d="M 97.003906 188.566406 C 95.601562 182.464844 94.300781 176.367188 92.902344 170.265625 L 111.203125 149.667969 L 118.101562 142.867188 L 177.203125 146.066406 L 180.402344 147.964844 C 189.003906 169.765625 197.402344 196.367188 202.703125 227.265625 C 213.402344 289.367188 207.300781 342.367188 200.003906 378.066406 C 194.003906 380.867188 184.300781 384.464844 171.902344 385.464844 C 157.703125 386.566406 146.300781 383.765625 139.601562 381.566406 C 125.902344 319.964844 112.402344 258.265625 98.703125 196.566406 M 98.703125 196.566406 C 98.101562 193.867188 97.503906 191.265625 96.902344 188.566406" fill="#e0fbfc"/></g><g id="change3_1"><path d="M 194.902344 223.566406 C 197.300781 243.167969 198.203125 260.765625 199.300781 302.066406 C 200.101562 331.265625 200.703125 370.066406 200.003906 416.265625 C 203.402344 419.464844 209.402344 424.265625 218.203125 427.566406 C 227.601562 431.066406 235.902344 431.167969 240.601562 430.964844 C 236.402344 394.667969 232.300781 358.367188 228.101562 321.964844 C 229.601562 322.765625 236.003906 325.867188 243.800781 323.964844 C 253.003906 321.667969 257.203125 314.265625 257.902344 313.066406 L 257.902344 269.964844 C 249.203125 237.367188 240.601562 204.867188 231.902344 172.265625 C 231.300781 170.066406 229.902344 168.265625 227.902344 167.167969 C 222.601562 164.265625 216.800781 161.265625 210.402344 158.464844 C 199.503906 153.667969 189.300781 150.367188 180.300781 147.964844 C 185.203125 166.167969 191.003906 192.066406 194.902344 223.566406 Z M 138.703125 242.765625 C 142.101562 267.066406 141.902344 287.765625 141.402344 328.265625 C 140.902344 362.964844 139.300781 391.867188 137.902344 412.167969 C 132.101562 418.667969 123.003906 427.367188 110.101562 434.867188 C 95.601562 443.367188 82.101562 446.964844 73.101562 448.667969 C 73.503906 436.167969 74.300781 416.367188 76.703125 392.066406 C 79.902344 359.367188 83.101562 346.765625 84.300781 322.066406 C 85.003906 307.667969 85.101562 286.265625 81.902344 259.867188 C 56.902344 302.667969 30.703125 330.566406 15.800781 325.566406 C 11.703125 324.167969 6.800781 319.667969 3.902344 314.765625 C -2.898438 303.265625 0.902344 289.667969 2.601562 283.066406 C 7.203125 265.367188 11.601562 241.265625 15.800781 205.964844 L 49.902344 204.265625 C 50.003906 206.964844 50.101562 209.667969 50.203125 212.367188 C 51.203125 209.566406 57.003906 192.765625 63.800781 179.367188 C 67.003906 173.066406 66.800781 173.566406 69.601562 168.667969 C 71.601562 165.167969 73.601562 161.867188 75.703125 158.667969 C 76.601562 157.265625 78.101562 156.265625 79.800781 155.867188 L 111.402344 149.566406 C 128.503906 187.765625 135.503906 220.265625 138.703125 242.765625" fill="#1e193e"/></g><g clip-path="url(#b)" id="change4_1"><path d="M 244.300781 296.765625 C 245.800781 306.964844 252.003906 313.066406 253.902344 314.867188 C 246.703125 319.667969 239.601562 324.464844 232.402344 329.265625 C 235.300781 334.566406 238.203125 339.867188 241.101562 345.167969 C 277.503906 323.867188 313.800781 302.464844 350.203125 281.167969 C 348.203125 278.867188 340.503906 269.464844 340.503906 255.367188 C 340.503906 242.066406 347.203125 233.066406 349.203125 230.566406 L 340.003906 229.265625 L 250.101562 274.464844 C 248.800781 276.066406 242.601562 284.765625 244.300781 296.765625 Z M 167.402344 134.867188 C 168.703125 135.265625 170.902344 136.167969 173.003906 138.066406 C 176.203125 141.066406 177.003906 144.667969 177.300781 145.964844 C 177.800781 149.167969 178.300781 153.964844 177.203125 159.765625 C 176.003906 166.464844 173.300781 171.464844 171.503906 174.367188 L 157.300781 155.667969 C 153.203125 161.464844 149.101562 167.265625 145.101562 173.066406 C 141.402344 170.765625 137.101562 167.566406 132.800781 163.265625 C 125.402344 155.867188 120.902344 148.265625 118.300781 142.765625 C 119.003906 141.167969 120.101562 139.066406 122.003906 136.964844 C 124.503906 134.066406 127.300781 132.464844 129.003906 131.667969 C 141.703125 132.765625 154.503906 133.867188 167.402344 134.867188" fill="#1b1a40"/></g><g id="change5_1"><path d="M 318.300781 299.765625 C 306.203125 295.765625 301.601562 297.066406 299.601562 299.265625 C 297.902344 301.167969 298.601562 303.367188 297.203125 307.167969 C 295.203125 312.367188 291.101562 315.667969 287.703125 317.667969 C 295.402344 322.867188 305.300781 322.566406 311.703125 317.167969 C 319.402344 310.867188 318.402344 300.566406 318.300781 299.765625 Z M 187.300781 67.265625 C 185.800781 66.566406 184.101562 66.96875 182.703125 67.566406 C 181.703125 68.167969 180.800781 68.765625 179.800781 69.46875 C 180.101562 66.566406 180.203125 62.167969 178.503906 57.46875 C 176.203125 51.066406 172.503906 49.167969 170.101562 42.96875 C 169.003906 40.066406 167.902344 35.667969 168.601562 29.367188 C 163.703125 32.765625 155.402344 37.765625 143.902344 40.066406 C 136.503906 41.566406 130.101562 41.566406 125.300781 41.167969 C 124.300781 45.46875 123.003906 50.167969 121.101562 55.167969 C 118.601562 61.96875 115.703125 67.765625 113.003906 72.566406 C 112.300781 70.867188 111.601562 69.167969 111.003906 67.46875 C 110.101562 67.265625 108.902344 67.066406 107.703125 67.566406 C 103.300781 69.265625 100.800781 78.265625 104.703125 83.566406 C 107.703125 87.667969 113.203125 87.867188 114.101562 87.867188 C 114.601562 91.066406 116.402344 100.464844 124.402344 108.367188 C 125.003906 108.964844 126.703125 110.566406 129.203125 112.367188 C 129.902344 115.765625 130.503906 120.566406 129.800781 126.265625 C 129.300781 130.367188 128.402344 133.867188 127.402344 136.566406 C 131.203125 140.265625 136.300781 144.566406 142.800781 148.566406 C 148.003906 151.765625 153.003906 154.066406 157.203125 155.765625 C 159.003906 153.265625 160.800781 150.464844 162.601562 147.464844 C 164.703125 144.066406 166.503906 140.765625 168.003906 137.566406 C 166.902344 133.464844 165.902344 128.167969 165.800781 121.867188 C 165.703125 117.464844 166.101562 113.464844 166.601562 110.167969 C 172.703125 104.667969 177.601562 96.765625 179.902344 87.167969 C 181.402344 87.066406 185.101562 86.667969 187.800781 83.867188 C 192.503906 78.96875 191.402344 69.167969 187.300781 67.265625 Z M 47.601562 188.964844 C 47.800781 195.964844 44.902344 201.667969 42.402344 205.167969 C 36.902344 205.367188 31.300781 205.566406 25.800781 205.765625 C 23.402344 203.265625 16.800781 195.964844 15.003906 184.167969 C 13.203125 172.464844 17.101562 163.464844 18.703125 160.464844 C 21.203125 158.867188 25.003906 156.765625 30.101562 155.964844 C 37.703125 154.667969 46.300781 156.367188 46.503906 158.566406 C 46.601562 159.667969 44.703125 161.367188 35.703125 163.964844 C 37.003906 165.566406 38.902344 168.066406 40.902344 171.265625 C 44.203125 176.667969 47.402344 182.066406 47.601562 188.964844" fill="#b37345"/></g><g id="change1_1"><path d="M 28.960938 139.929688 L 18.785156 124.820312 C 17.285156 122.519531 14.484375 121.621094 12.683594 122.921875 C 10.882812 124.121094 10.683594 127.019531 12.183594 129.320312 L 63.382812 205.320312 L 72.683594 211.820312 L 69.984375 200.820312 L 32.679688 145.449219 M 32.679688 145.449219 L 28.960938 139.929688" fill="#293241"/></g><g id="change5_2"><path d="M 38.902344 184.066406 C 36.101562 180.464844 33.402344 176.867188 30.601562 173.265625 M 30.601562 173.265625 C 27.902344 169.867188 25.203125 166.464844 22.503906 163.066406 C 25.300781 162.464844 30.300781 161.964844 35.800781 163.964844 C 44.300781 167.167969 50.703125 175.566406 49.101562 178.367188 C 48.601562 179.265625 47.503906 179.066406 44.203125 180.667969 C 41.902344 181.765625 40.101562 183.066406 38.902344 184.066406" fill="#b37345"/></g><g id="change1_2"><path d="M 157.300781 65.566406 C 156.503906 66.167969 157.203125 67.46875 158.101562 66.867188 C 159.101562 66.167969 160.101562 65.765625 161.203125 65.566406 C 160.203125 66.167969 159.601562 67.265625 159.601562 68.566406 C 159.601562 70.566406 161.203125 72.167969 163.203125 72.167969 C 165.203125 72.167969 166.800781 70.566406 166.800781 68.566406 C 166.800781 67.667969 166.503906 66.867188 166.003906 66.265625 C 166.101562 66.367188 166.203125 66.367188 166.300781 66.46875 C 168.101562 67.46875 169.503906 69.265625 171.601562 69.667969 C 172.902344 69.867188 173.800781 68.46875 172.902344 67.46875 C 168.902344 62.765625 162.101562 61.96875 157.300781 65.566406 Z M 174.300781 55.167969 C 168.703125 52.867188 162.203125 52.566406 156.703125 55.167969 C 155.402344 55.765625 156.300781 57.667969 157.601562 57.367188 C 163.003906 56.066406 168.003906 57.566406 173.300781 58.566406 C 175.703125 59.066406 176.402344 56.066406 174.300781 55.167969 Z M 139.601562 58.367188 C 140.800781 58.367188 141.101562 56.566406 139.902344 56.265625 C 136.402344 55.46875 133.101562 55.265625 129.601562 55.96875 C 126.703125 56.566406 122.703125 57.566406 121.203125 60.367188 C 120.703125 61.265625 121.300781 62.367188 122.402344 62.367188 C 125.101562 62.367188 127.503906 60.46875 130.101562 59.667969 C 133.203125 58.867188 136.402344 58.367188 139.601562 58.367188 Z M 129.703125 69.667969 C 129.703125 71.667969 131.300781 73.265625 133.300781 73.265625 C 135.300781 73.265625 136.902344 71.667969 136.902344 69.667969 C 136.902344 68.367188 136.203125 67.167969 135.101562 66.566406 C 136.101562 66.566406 137.003906 66.667969 137.902344 67.167969 C 138.503906 67.46875 138.902344 66.667969 138.402344 66.265625 C 136.203125 64.667969 133.800781 64.265625 131.203125 65.066406 C 129.003906 65.765625 125.601562 67.667969 125.101562 70.066406 C 124.902344 70.765625 125.601562 71.566406 126.300781 71.265625 C 127.800781 70.867188 128.800781 69.566406 129.902344 68.566406 C 129.800781 68.96875 129.703125 69.265625 129.703125 69.667969 Z M 147.203125 81.566406 C 146.203125 82.066406 146.902344 83.867188 148.003906 83.367188 C 150.503906 82.367188 151.902344 80.46875 151.703125 77.667969 C 151.601562 76.46875 150.800781 75.265625 150.503906 74.167969 C 150.101562 72.765625 150.101562 71.265625 150.003906 69.867188 C 149.800781 67.265625 150.101562 64.667969 149.203125 62.167969 C 148.800781 61.066406 147.402344 61.066406 147.003906 62.167969 C 146.003906 65.066406 146.601562 68.46875 147.101562 71.46875 C 147.503906 74.667969 151.003906 79.765625 147.203125 81.566406 Z M 141.601562 94.167969 C 141.503906 94.167969 141.503906 94.167969 141.402344 94.167969 C 141.902344 99.667969 148.101562 102.765625 152.503906 99.066406 C 154.902344 97.066406 156.003906 94.066406 156.703125 91.167969 C 151.800781 92.265625 146.703125 93.765625 141.601562 94.167969 Z M 140.402344 92.96875 C 140.402344 92.367188 140.703125 91.765625 141.300781 91.566406 C 146.402344 89.96875 152.203125 89.46875 157.503906 88.566406 C 158.300781 87.765625 160.101562 88.566406 159.800781 89.96875 C 158.703125 95.667969 156.003906 102.367188 149.503906 103.265625 C 143.800781 104.066406 139.402344 99.46875 139.503906 93.96875 C 139.503906 93.367188 139.902344 93.066406 140.402344 92.96875 Z M 276.300781 290.765625 C 274.703125 283.667969 275.300781 276.765625 277.800781 269.964844 C 278.503906 268.066406 275.300781 266.667969 274.503906 268.566406 C 271.300781 275.867188 271.003906 283.867188 273.902344 291.367188 C 274.503906 292.867188 276.703125 292.265625 276.300781 290.765625 Z M 303.003906 273.367188 C 301.800781 271.167969 301.101562 268.765625 300.902344 266.367188 C 300.703125 264.265625 301.300781 262.167969 301.203125 260.066406 C 301.101562 258.667969 299.203125 257.964844 298.503906 259.367188 C 296.101562 263.964844 298.203125 270.566406 300.703125 274.765625 C 301.601562 276.066406 303.800781 274.765625 303.003906 273.367188 Z M 312.503906 272.167969 C 313.300781 272.867188 314.402344 271.765625 313.601562 271.066406 C 308.601562 265.566406 311.902344 257.464844 312.503906 250.964844 C 312.703125 249.167969 309.703125 248.765625 309.300781 250.566406 C 308.101562 257.367188 306.402344 267.167969 312.503906 272.167969 Z M 343.101562 274.867188 C 330.402344 281.566406 317.800781 288.167969 305.203125 294.964844 C 303.601562 295.867188 305.003906 298.367188 306.703125 297.464844 C 319.203125 290.566406 331.601562 283.464844 343.800781 276.066406 C 344.503906 275.566406 343.902344 274.464844 343.101562 274.867188 Z M 291.402344 302.667969 C 281.503906 307.964844 271.800781 313.667969 262.203125 319.566406 C 253.300781 325.066406 243.503906 330.265625 235.703125 337.167969 C 234.703125 338.066406 236.003906 339.566406 237.101562 338.964844 C 246.601562 334.066406 255.402344 326.964844 264.503906 321.265625 C 273.703125 315.464844 283.003906 309.765625 292.300781 304.167969 C 293.203125 303.566406 292.402344 302.167969 291.402344 302.667969 Z M 335.203125 273.167969 C 335.902344 273.167969 336.503906 272.765625 336.703125 272.167969 C 337.300781 271.765625 337.902344 271.367188 338.503906 270.867188 C 339.601562 269.964844 338.402344 268.167969 337.203125 268.566406 C 336.902344 268.667969 336.503906 268.867188 336.203125 268.964844 C 334.703125 263.167969 334.203125 257.367188 334.601562 251.265625 C 335.003906 244.765625 335.703125 236.167969 339.402344 230.566406 C 340.003906 229.667969 338.601562 228.667969 338.003906 229.464844 C 333.703125 234.765625 332.703125 242.464844 331.902344 248.964844 C 331.003906 256.066406 331.203125 263.265625 333.101562 270.167969 C 327.703125 272.566406 322.601562 275.867188 317.503906 278.566406 C 310.402344 282.367188 303.300781 286.167969 296.203125 289.964844 C 282.003906 297.566406 267.800781 305.167969 253.800781 312.964844 C 252.503906 313.667969 253.601562 315.566406 254.902344 314.867188 C 269.300781 307.667969 283.503906 300.167969 297.800781 292.667969 C 304.601562 289.066406 311.402344 285.566406 318.203125 281.964844 C 323.703125 279.167969 329.902344 276.566406 335.203125 273.167969 Z M 84.703125 211.964844 C 85.101562 193.867188 82.601562 175.964844 77.902344 158.464844 C 77.503906 157.066406 75.402344 157.667969 75.703125 159.066406 C 79.902344 176.867188 81.902344 195.167969 81.203125 213.367188 C 80.503906 230.765625 79.003906 248.066406 80.003906 265.464844 C 80.800781 279.066406 82.601562 292.566406 82.601562 306.265625 C 82.601562 326.167969 80.703125 346.066406 77.503906 365.667969 C 77.101562 368.265625 81.003906 369.367188 81.402344 366.765625 C 84.902344 347.265625 86.800781 327.566406 86.703125 307.765625 C 86.703125 293.566406 84.703125 279.667969 83.902344 265.464844 C 83.003906 247.667969 84.402344 229.867188 84.703125 211.964844 Z M 224.800781 271.167969 C 223.601562 253.066406 222.503906 234.964844 221.601562 216.765625 C 220.800781 200.367188 219.203125 182.464844 227.402344 167.464844 C 228.003906 166.464844 226.402344 165.464844 225.800781 166.566406 C 217.902344 179.964844 217.300781 195.066406 217.703125 210.265625 C 218.300781 229.066406 219.402344 247.867188 220.703125 266.566406 C 223.203125 304.265625 226.503906 341.964844 231.003906 379.566406 C 231.300781 381.765625 234.800781 381.867188 234.503906 379.566406 C 230.703125 343.566406 227.300781 307.464844 224.800781 271.167969 Z M 49.101562 212.765625 C 48.503906 235.265625 43.300781 255.964844 37.601562 277.464844 C 37.003906 279.867188 40.300781 280.667969 41.203125 278.464844 C 49.402344 258.066406 51.503906 234.464844 51.402344 212.765625 C 51.503906 211.167969 49.101562 211.167969 49.101562 212.765625 Z M 169.300781 224.667969 C 167.101562 203.367188 163.800781 182.167969 159.101562 161.167969 C 158.800781 159.964844 157.101562 160.464844 157.300781 161.667969 C 161.300781 183.265625 164.601562 204.964844 166.402344 226.867188 C 167.300781 237.265625 167.902344 247.765625 168.203125 258.265625 C 168.503906 269.066406 167.902344 279.964844 168.503906 290.765625 C 168.601562 292.964844 171.703125 292.964844 171.902344 290.765625 C 172.902344 279.667969 172.101562 268.167969 171.601562 257.066406 C 171.203125 246.265625 170.402344 235.464844 169.300781 224.667969 Z M 183.703125 69.667969 C 182.800781 69.96875 183.101562 71.46875 184.101562 71.167969 C 185.101562 70.867188 185.800781 71.765625 186.203125 72.667969 C 186.601562 73.667969 186.300781 74.867188 187.300781 75.46875 C 187.800781 75.765625 188.402344 75.566406 188.703125 75.066406 C 189.601562 73.867188 188.300781 71.566406 187.402344 70.667969 C 186.503906 69.765625 184.902344 69.265625 183.703125 69.667969 Z M 105.003906 77.765625 C 105.703125 78.367188 106.503906 78.066406 106.800781 77.265625 C 107.101562 76.46875 106.601562 75.566406 106.601562 74.765625 C 106.601562 74.167969 106.800781 72.265625 107.902344 72.96875 C 108.601562 73.46875 109.203125 72.367188 108.601562 71.867188 C 105.902344 69.867188 103.003906 76.066406 105.003906 77.765625 Z M 163.800781 110.765625 C 153.203125 115.964844 141.402344 117.566406 130.503906 112.367188 C 129.601562 111.964844 128.800781 113.265625 129.703125 113.765625 C 140.902344 119.265625 154.300781 120.167969 165.203125 113.167969 C 166.703125 112.167969 165.402344 109.964844 163.800781 110.765625 Z M 46.601562 174.867188 C 47.503906 174.964844 47.601562 173.566406 46.800781 173.367188 C 41.300781 172.167969 34.703125 171.765625 29.503906 174.167969 C 28.503906 174.667969 29.003906 176.367188 30.101562 176.265625 C 32.902344 175.867188 35.503906 175.066406 38.300781 174.765625 C 41.003906 174.566406 43.800781 174.566406 46.601562 174.867188 Z M 43.703125 170.167969 C 44.300781 170.367188 44.503906 169.464844 44.003906 169.265625 C 36.902344 166.667969 28.601562 166.066406 21.601562 169.167969 C 20.503906 169.667969 21.300781 171.265625 22.402344 170.964844 C 29.703125 168.964844 36.203125 168.066406 43.703125 170.167969 Z M 35.601562 164.464844 C 36.300781 164.667969 36.601562 163.566406 35.902344 163.367188 C 31.101562 161.867188 24.402344 160.367188 19.902344 163.566406 C 18.703125 164.367188 19.703125 166.167969 21.003906 165.566406 C 25.503906 163.367188 30.902344 163.265625 35.601562 164.464844 Z M 49.003906 179.867188 C 42.902344 180.964844 39.601562 187.066406 33.800781 188.566406 C 32.402344 188.867188 31.902344 187.167969 32.902344 186.464844 C 35.402344 184.566406 38.300781 182.765625 41.003906 181.167969 C 43.402344 179.765625 45.902344 178.765625 48.703125 178.566406 C 49.601562 178.367188 49.800781 179.667969 49.003906 179.867188" fill="#293241"/></g></g></svg>