<svg width="42" height="42" viewBox="0 0 42 42" fill="none" xmlns="http://www.w3.org/2000/svg">
<path d="M7 33.25V8.75C7 7.82174 7.36875 6.9315 8.02513 6.27513C8.6815 5.61875 9.57174 5.25 10.5 5.25H33.95C34.2285 5.25 34.4955 5.36062 34.6925 5.55754C34.8894 5.75445 35 6.02152 35 6.3V29.2495" stroke="#F8F8F8" stroke-width="1.5" stroke-linecap="round"/>
<path d="M14 5.25V19.25L18.375 16.45L22.75 19.25V5.25" stroke="#F8F8F8" stroke-width="1.5" stroke-linecap="round" stroke-linejoin="round"/>
<path d="M10.5 29.75H35M10.5 36.75H35" stroke="#F8F8F8" stroke-width="1.5" stroke-linecap="round"/>
<path d="M10.5 36.75C9.57174 36.75 8.6815 36.3813 8.02513 35.7249C7.36875 35.0685 7 34.1783 7 33.25C7 32.3217 7.36875 31.4315 8.02513 30.7751C8.6815 30.1187 9.57174 29.75 10.5 29.75" stroke="#F8F8F8" stroke-width="1.5" stroke-linecap="round" stroke-linejoin="round"/>
</svg>
