<svg width="160" height="160" viewBox="0 0 160 160" fill="none" xmlns="http://www.w3.org/2000/svg">
<g clip-path="url(#clip0_682_3811)">
<path d="M156.6 79.8002C156.6 91.3252 154.025 102.3 149.425 112.125C148.7 113.675 147.925 115.2 147.1 116.7C145.6 119.475 143.9 122.15 142.05 124.7C139.6 128.05 136.925 131.2 133.925 134.15C133.875 134.25 133.775 134.35 133.625 134.45C133.375 134.75 133.075 135.025 132.8 135.3C129.45 138.5 125.825 141.375 121.95 143.9C121.9 143.95 121.8 144 121.75 144.025C120.55 144.8 119.325 145.55 118.075 146.275C116 147.45 113.875 148.55 111.7 149.55C109.9 150.35 108.05 151.1 106.15 151.75C106.15 151.75 106.125 151.8 106.1 151.775C106.05 151.85 105.975 151.875 105.875 151.875C105.275 152.1 104.675 152.3 104.075 152.475C100.95 153.525 97.7249 154.4 94.4249 155C89.7749 155.925 84.9499 156.375 79.9999 156.375C79.2499 156.375 78.5249 156.375 77.7749 156.325C73.5999 156.225 69.5249 155.775 65.5749 155C65.4749 154.975 65.3999 154.975 65.2999 154.95C61.4499 154.225 57.6749 153.175 54.0749 151.875C54.0249 151.875 53.9999 151.85 53.9999 151.85H53.9749C53.7249 151.75 53.4749 151.675 53.2249 151.575C51.5499 150.95 49.8999 150.275 48.2999 149.55C44.9249 148 41.6749 146.25 38.5749 144.225C38.5249 144.2 38.4999 144.175 38.4499 144.15C38.1249 143.95 37.7999 143.725 37.4749 143.5C33.7749 141.075 30.2999 138.25 27.0999 135.2L26.9749 135.075C26.9749 135.075 26.9749 135.075 26.9499 135.075C26.8249 134.925 26.7499 134.85 26.6499 134.75C23.4499 131.65 20.5249 128.3 17.9249 124.7C16.0749 122.125 14.3749 119.475 12.8499 116.7C12.3249 115.75 11.8249 114.775 11.3249 113.8C6.2499 103.55 3.3999 92.0002 3.3999 79.8002C3.3999 64.1502 8.0999 49.6252 16.1499 37.5002C19.7999 31.9752 24.1749 26.9502 29.0999 22.5752C42.6249 10.5252 60.4499 3.2002 79.9999 3.2002C99.5499 3.2002 117.375 10.5252 130.9 22.5752C135.65 26.8002 139.9 31.6252 143.475 36.9252C151.775 49.1502 156.6 63.9252 156.6 79.8002Z" fill="#0273AD" stroke="#023857" stroke-width="6"/>
<path d="M156.6 3.2002V79.8002C156.6 91.3252 154.025 102.3 149.425 112.125C148.7 113.675 147.925 115.2 147.1 116.7H12.8499C12.3249 115.75 11.8249 114.775 11.3249 113.8C6.2499 103.55 3.3999 92.0002 3.3999 79.8002V3.2002H156.6Z" fill="#40C078" stroke="#023857" stroke-width="6" stroke-miterlimit="10"/>
<path d="M87.8499 22.5752H147.2" stroke="#023857" stroke-width="6" stroke-miterlimit="10"/>
<path d="M87.8499 36.9248H147.2" stroke="#023857" stroke-width="6" stroke-miterlimit="10"/>
<path d="M87.8499 51.2754H147.2" stroke="#023857" stroke-width="6" stroke-miterlimit="10"/>
<path d="M87.8499 65.6006H114.8" stroke="#023857" stroke-width="6" stroke-miterlimit="10"/>
<path d="M120.25 65.6006H147.2" stroke="#023857" stroke-width="6" stroke-miterlimit="10"/>
<path d="M34.9499 22.5752H16.1499V41.3752H34.9499V22.5752Z" stroke="#023857" stroke-width="6" stroke-miterlimit="10"/>
<path d="M14.825 58.4756H36.275" stroke="#023857" stroke-width="6" stroke-miterlimit="10"/>
<path d="M14.825 70.8252H36.275" stroke="#023857" stroke-width="6" stroke-miterlimit="10"/>
<path d="M14.825 83.2002H36.275" stroke="#023857" stroke-width="6" stroke-miterlimit="10"/>
<path d="M50.8252 106.675C49.2002 98.2995 47.9752 89.7995 47.0502 81.3245C45.1502 63.7745 42.7502 38.6745 63.6502 31.5995C72.6252 28.5495 83.3502 29.1245 92.2252 32.2995C103.7 36.3995 108.8 47.6495 109 59.2245C109.3 75.0995 106.95 91.1995 103.75 106.7C103.725 106.675 50.8252 106.675 50.8252 106.675Z" fill="#FEBE00" stroke="#023857" stroke-width="6" stroke-miterlimit="10"/>
<path d="M68.3252 92.4248V106.675H86.4252V92.7498L68.3252 92.4248Z" fill="#FFF8F0" stroke="#023857" stroke-width="6" stroke-miterlimit="10"/>
<path d="M94.675 63.6493C94.675 63.6493 104.075 61.6743 104.075 70.8243C104.075 79.9743 94.675 77.9993 94.675 77.9993" fill="#FFF8F0"/>
<path d="M94.675 63.6493C94.675 63.6493 104.075 61.6743 104.075 70.8243C104.075 79.9743 94.675 77.9993 94.675 77.9993" stroke="#023857" stroke-width="6" stroke-miterlimit="10"/>
<path d="M80.75 47.8242H74.825C66.075 47.8242 59 54.8992 59 63.6492V77.9992C59 86.7492 66.075 93.8242 74.825 93.8242H80.75C89.5 93.8242 96.575 86.7492 96.575 77.9992V63.6492C96.575 54.9242 89.475 47.8242 80.75 47.8242Z" fill="#FFF8F0" stroke="#023857" stroke-width="6" stroke-miterlimit="10"/>
<path d="M90.6252 42.1499C90.6252 42.1499 79.3252 69.3499 57.0002 74.2999C34.6752 79.2499 63.6752 28.5499 90.6252 42.1499Z" fill="#FEBE00"/>
<path d="M90.6251 43.875C90.6251 43.875 81.7251 65.375 55.0251 75.775L90.6251 43.875Z" fill="#FEBE00"/>
<path d="M90.6251 43.875C90.6251 43.875 81.7251 65.375 55.0251 75.775" stroke="#023857" stroke-width="6" stroke-miterlimit="10"/>
<path d="M118.075 116.7V146.275C116 147.45 113.875 148.55 111.7 149.55C109.9 150.35 108.05 151.1 106.15 151.75C106.15 151.75 106.125 151.8 106.1 151.775C106.05 151.85 105.975 151.875 105.875 151.875C105.275 152.1 104.675 152.3 104.075 152.475C100.95 153.525 97.7251 154.4 94.4251 155C89.7751 155.925 84.9501 156.375 80.0001 156.375C79.2501 156.375 78.5251 156.375 77.7751 156.325C73.6001 156.225 69.5251 155.775 65.5751 155C65.4751 154.975 65.4001 154.975 65.3001 154.95C61.4501 154.225 57.6751 153.175 54.0751 151.875C54.0251 151.875 54.0001 151.85 54.0001 151.85H53.9751C53.7251 151.75 53.4751 151.675 53.2251 151.575C51.5501 150.95 49.9001 150.275 48.3001 149.55C44.9251 148 41.6751 146.25 38.5751 144.225C38.5251 144.2 38.5001 144.175 38.4501 144.15C38.1251 143.95 37.8001 143.725 37.4751 143.5V116.7C37.4751 111.15 41.9501 106.675 47.4751 106.675H108.075C109.925 106.675 111.675 107.175 113.15 108.05C116.1 109.8 118.075 113 118.075 116.7Z" fill="#FE415B" stroke="#023857" stroke-width="6" stroke-miterlimit="10"/>
<path d="M77.7751 156.325V147.85V130.7V116.7V106.675" stroke="#023857" stroke-width="6" stroke-miterlimit="10"/>
<path d="M51.0752 152.199V140.074" stroke="#023857" stroke-width="6" stroke-miterlimit="10"/>
<path d="M104.075 152.475V143.675" stroke="#023857" stroke-width="6" stroke-miterlimit="10"/>
</g>
<defs>
<clipPath id="clip0_682_3811">
<rect width="160" height="160" fill="white"/>
</clipPath>
</defs>
</svg>
