<svg width="160" height="160" viewBox="0 0 160 160" fill="none" xmlns="http://www.w3.org/2000/svg">
<g clip-path="url(#clip0_682_3786)">
<path d="M156.6 78.3998C156.6 89.9498 154.05 100.9 149.45 110.725C147.4 115.15 144.9 119.35 142.05 123.3C139.625 126.65 136.925 129.825 133.95 132.75C133.9 132.85 133.8 132.95 133.625 133.075C133.375 133.375 133.1 133.625 132.8 133.925C129.45 137.125 125.825 140 121.95 142.5C121.9 142.55 121.825 142.6 121.775 142.625C118.575 144.7 115.2 146.55 111.7 148.15C109.9 148.975 108.05 149.7 106.15 150.375C106.15 150.375 106.125 150.425 106.1 150.4C106.05 150.45 105.975 150.475 105.9 150.475C102.2 151.825 98.3749 152.875 94.4249 153.625C89.7749 154.55 84.9499 155 79.9999 155C75.0499 155 70.2249 154.55 65.5749 153.625C61.6249 152.875 57.7499 151.825 54.0499 150.475C54.0249 150.475 53.9999 150.45 53.9999 150.45H53.9749C52.0499 149.775 50.1499 149 48.2999 148.15C44.9249 146.625 41.6749 144.85 38.5749 142.85C38.5249 142.825 38.4999 142.8 38.4499 142.775C34.3749 140.15 30.5749 137.15 27.0999 133.825L26.9749 133.7C26.9749 133.7 26.9749 133.7 26.9499 133.7C26.8499 133.575 26.7749 133.5 26.6499 133.375C23.4499 130.275 20.5249 126.925 17.9249 123.3C15.4249 119.875 13.2249 116.25 11.3249 112.425C6.2499 102.175 3.3999 90.5998 3.3999 78.3998C3.3999 36.1248 37.7249 1.7998 79.9999 1.7998C122.275 1.7998 156.6 36.1248 156.6 78.3998Z" fill="#0273AD" stroke="#023857" stroke-width="6"/>
<path d="M52.0249 108.925V62.925C52.0249 56.1 53.9999 49.325 58.1499 43.9C62.2999 38.5 69.0749 33.5 79.9749 33.5C89.8749 33.5 96.5749 37.625 101.025 42.45C106.375 48.25 109.05 56.05 109.05 63.95V110.1" fill="#FB7B03"/>
<path d="M52.0249 108.925V62.925C52.0249 56.1 53.9999 49.325 58.1499 43.9C62.2999 38.5 69.0749 33.5 79.9749 33.5C89.8749 33.5 96.5749 37.625 101.025 42.45C106.375 48.25 109.05 56.05 109.05 63.95V110.1" stroke="#023857" stroke-width="6"/>
<path d="M111.7 110.1V148.15C109.9 148.975 108.05 149.7 106.15 150.375C106.15 150.375 106.125 150.425 106.1 150.4C106.05 150.45 105.975 150.475 105.9 150.475C102.2 151.825 98.3748 152.875 94.4248 153.625C89.7748 154.55 84.9498 155 79.9998 155C75.0498 155 70.2248 154.55 65.5748 153.625C61.6248 152.875 57.7498 151.825 54.0498 150.475C54.0248 150.475 53.9998 150.45 53.9998 150.45H53.9748C52.0498 149.775 50.1498 149 48.2998 148.15V110.1L52.0248 108.9H52.0498L58.8748 106.75L69.4498 103.4H90.5748L101.9 107L109.05 109.25L111.7 110.1Z" fill="#FE415B" stroke="#023857" stroke-width="6"/>
<path d="M79.9998 118.025V155" stroke="#023857" stroke-width="6"/>
<path d="M69.6748 88.7754L69.4248 104.8L79.9998 118.025L90.5748 104.8V89.8504" fill="#FFF8F0"/>
<path d="M69.6748 88.7754L69.4248 104.8L79.9998 118.025L90.5748 104.8V89.8504" stroke="#023857" stroke-width="6"/>
<path d="M64.4999 58.4246L71.1499 55.0996C71.7749 54.7996 72.3249 54.3996 72.7999 53.8996L75.4749 51.2246C76.6749 50.0246 78.2999 49.3496 79.9749 49.3496C81.6749 49.3496 83.2999 50.0246 84.4749 51.2246L87.1499 53.8996C87.6249 54.3746 88.1999 54.7996 88.7999 55.0996L95.6499 58.5246C97.4999 59.4496 98.7999 61.1996 99.0999 63.2496C100.225 70.8246 100.825 89.0246 81.6499 93.8746C80.4749 94.1746 79.2499 94.0996 78.0999 93.6746C72.8749 91.7996 58.6499 84.6996 60.9499 63.4496C61.2249 61.2996 62.5499 59.3996 64.4999 58.4246Z" fill="#FFF8F0" stroke="#023857" stroke-width="6"/>
<path d="M53.9999 142.899V150.449H53.9749C52.0499 149.774 50.1499 148.999 48.2999 148.149C44.9249 146.624 41.6749 144.849 38.5749 142.849C38.5249 142.824 38.4999 142.799 38.4499 142.774C34.3749 140.149 30.5749 137.149 27.0999 133.824L26.9749 133.699C26.9749 133.699 26.9749 133.699 26.9499 133.699C26.8499 133.574 26.7749 133.499 26.6499 133.374C27.9999 132.974 28.9499 131.699 28.9499 130.224V127.024C28.9499 127.024 28.9499 127.024 28.9749 127.024L40.6249 126.274V129.499C40.6249 129.574 40.6249 129.649 40.6499 129.749C40.7499 131.499 42.1999 132.849 43.9749 132.849C44.7999 132.849 45.5499 132.949 46.3249 133.149C46.9999 133.299 47.6749 133.549 48.2999 133.874C51.1999 135.249 53.3499 138.024 53.8499 141.299C53.8999 141.549 53.9249 141.749 53.9499 141.974C53.9749 142.274 53.9999 142.574 53.9999 142.899Z" fill="#FFF8F0" stroke="#023857" stroke-width="6"/>
<path d="M53.975 150.45C52.05 149.775 50.15 149 48.2999 148.15C44.9249 146.625 41.675 144.85 38.575 142.85C39.075 142.725 39.5249 142.5 39.9499 142.275C44.2499 139.925 44.8 134.225 44.8 134.225C45.25 134.2 45.675 134.225 46.075 134.275C46.9 134.375 47.6249 134.675 48.2999 135.05C52.9999 137.85 53.825 146.975 53.975 150.45Z" fill="#40C078"/>
<path d="M54.075 150.475V143.3C54.075 142.85 54.05 142.4 53.975 141.95C53.95 141.7 53.925 141.5 53.875 141.275C53.25 138.125 51.15 135.55 48.325 134.225C47.7 133.9 46.975 133.675 46.275 133.5C45.55 133.325 44.8 133.225 44.025 133.225C42.175 133.225 40.675 131.725 40.675 129.875V129.75V127.325V126.7" stroke="#023857" stroke-width="6"/>
<path d="M26.95 133.675C26.975 133.675 26.975 133.675 26.975 133.675C28.175 133.15 28.975 131.95 28.975 130.575V127.375" stroke="#023857" stroke-width="6"/>
<path d="M54.325 123.3H15.875C13.35 123.3 11.325 121.25 11.325 118.75V104.825C11.325 91.6998 21.975 81.0498 35.1 81.0498C48.225 81.0498 58.875 91.6998 58.875 104.825V118.75C58.875 121.25 56.825 123.3 54.325 123.3Z" fill="#FB7B03" stroke="#023857" stroke-width="6"/>
<path d="M35.0999 128.575C27.7999 128.575 21.8999 122.475 21.8999 114.925V102.375C21.8999 100.475 23.6749 99.0996 25.4499 99.6496L46.3499 106.125C47.5249 106.475 48.3249 107.6 48.3249 108.85V114.925C48.2999 122.475 42.3999 128.575 35.0999 128.575Z" fill="#FFF8F0" stroke="#023857" stroke-width="6"/>
<path d="M38.45 142.775C38.975 142.65 39.4749 142.475 39.9499 142.275C43.8749 140.625 45.4 137.1 46.075 134.275C46.15 134 46.2 133.75 46.225 133.5C46.25 133.375 46.275 133.225 46.3 133.125" stroke="#023857" stroke-width="6"/>
<path d="M133.925 132.75C133.875 132.85 133.775 132.95 133.6 133.075C133.35 133.375 133.075 133.625 132.775 133.925C129.45 137.125 125.825 140 121.95 142.5C121.9 142.55 121.825 142.6 121.775 142.625C118.575 144.7 115.2 146.55 111.7 148.15C109.9 148.975 108.05 149.7 106.15 150.375C106.15 150.375 106.125 150.425 106.1 150.4V143.6C106.1 140.825 107.225 138.325 109.05 136.5C109.825 135.725 110.725 135.1 111.7 134.6C111.95 134.475 112.2 134.35 112.475 134.275C112.9 134.1 113.325 133.95 113.775 133.85C114.55 133.65 115.35 133.525 116.175 133.525C118.025 133.525 119.525 132.05 119.525 130.2V127L131.2 126.25V129.475C131.2 129.55 131.2 129.625 131.225 129.725C131.3 131.275 132.45 132.525 133.925 132.75Z" fill="#FFF8F0" stroke="#023857" stroke-width="6"/>
<path d="M121.95 142.499C121.9 142.549 121.825 142.599 121.775 142.624C118.575 144.699 115.2 146.549 111.7 148.149C109.9 148.974 108.05 149.699 106.15 150.374C106.15 150.374 106.125 150.424 106.1 150.399C106.05 150.449 105.975 150.474 105.9 150.474C105.65 148.549 105.8 146.774 106.1 145.149C106.1 145.074 106.125 144.999 106.15 144.899C107.2 139.949 110.25 136.449 111.675 135.024C111.675 135.024 111.675 135.024 111.7 135.024V134.999C112.175 134.524 112.475 134.274 112.475 134.274C112.475 134.274 112.525 134.374 112.625 134.599C113.175 135.624 115.225 138.949 119 141.174C119.85 141.699 120.85 142.174 121.95 142.499Z" fill="#FE415B"/>
<path d="M133.625 133.075C132.225 132.7 131.225 131.4 131.225 129.875V129.75V127.325V126.7" stroke="#023857" stroke-width="6"/>
<path d="M119.55 127.399V130.599C119.55 132.449 118.05 133.949 116.2 133.949C115.4 133.949 114.65 134.024 113.9 134.249C113.475 134.324 113.025 134.449 112.625 134.624C112.3 134.749 112 134.899 111.7 135.024V135.049C111.675 135.049 111.675 135.049 111.675 135.049C110.7 135.524 109.825 136.174 109.075 136.924C107.25 138.749 106.15 141.249 106.15 144.024V144.924V150.399" stroke="#023857" stroke-width="6"/>
<path d="M144.875 123.3H106.45C103.925 123.3 101.9 121.25 101.9 118.75V104.825C101.9 91.6998 112.55 81.0498 125.675 81.0498C138.8 81.0498 149.45 91.6998 149.45 104.825V118.75C149.425 121.25 147.375 123.3 144.875 123.3Z" fill="#FEBE00" stroke="#023857" stroke-width="6"/>
<path d="M125.65 128.575C118.35 128.575 112.45 122.475 112.45 114.925V102.375C112.45 100.475 114.225 99.0996 116 99.6496L136.9 106.125C138.075 106.475 138.875 107.6 138.875 108.85V114.925C138.85 122.475 132.95 128.575 125.65 128.575Z" fill="#FFF8F0" stroke="#023857" stroke-width="6"/>
<path d="M121.75 142.625C120.725 142.25 119.8 141.75 118.975 141.175C115.8 138.9 114.3 135.375 113.875 134.225C113.8 133.975 113.75 133.85 113.75 133.85" stroke="#023857" stroke-width="6"/>
</g>
<defs>
<clipPath id="clip0_682_3786">
<rect width="160" height="160" fill="white"/>
</clipPath>
</defs>
</svg>
