<svg width="160" height="160" viewBox="0 0 160 160" fill="none" xmlns="http://www.w3.org/2000/svg">
<g clip-path="url(#clip0_682_3835)">
<path d="M156.6 79.8002C156.6 91.3252 154.025 102.3 149.425 112.125C149.4 112.175 149.375 112.225 149.35 112.275C147.325 116.65 144.875 120.8 142.05 124.7C141.1 125.975 140.15 127.225 139.125 128.45C139 128.6 138.875 128.75 138.75 128.9C137.25 130.725 135.625 132.475 133.925 134.15C133.875 134.25 133.775 134.35 133.625 134.45C133.375 134.75 133.075 135.025 132.8 135.3C131.475 136.55 130.125 137.775 128.725 138.9C126.575 140.7 124.3 142.375 121.95 143.9C121.9 143.95 121.8 144 121.75 144.025C120.3 144.975 118.825 145.85 117.3 146.7C115.475 147.725 113.6 148.675 111.7 149.55C109.9 150.35 108.05 151.1 106.15 151.75C106.15 151.75 106.125 151.8 106.1 151.775C106.05 151.85 105.975 151.875 105.875 151.875C103.6 152.7 101.275 153.4 98.8999 154C97.4249 154.4 95.9249 154.725 94.4249 155C89.7749 155.925 84.9499 156.375 79.9999 156.375C75.0499 156.375 70.2249 155.925 65.5749 155C63.6999 154.65 61.8249 154.225 59.9999 153.725C57.9749 153.2 55.9999 152.575 54.0749 151.875C54.0249 151.875 53.9999 151.85 53.9999 151.85H53.9749C52.0499 151.15 50.1499 150.375 48.2999 149.55C46.3749 148.675 44.4999 147.725 42.6749 146.7C41.2749 145.925 39.9249 145.1 38.5749 144.225C38.5249 144.2 38.4999 144.175 38.4499 144.15C35.9499 142.55 33.5749 140.825 31.2999 138.9C29.8499 137.75 28.4499 136.5 27.0999 135.2L26.9749 135.075C26.9749 135.075 26.9749 135.075 26.9499 135.075C26.8249 134.925 26.7499 134.85 26.6499 134.75C24.7249 132.9 22.8999 130.95 21.2249 128.9C20.7249 128.325 20.2499 127.75 19.7749 127.15C19.1499 126.35 18.5249 125.525 17.9249 124.7C15.4249 121.25 13.2249 117.625 11.3249 113.8C10.8249 112.8 10.3499 111.775 9.8999 110.75C7.0249 104.25 5.0499 97.2752 4.0749 90.0002C4.0249 89.5752 3.9499 89.1752 3.9249 88.7502C3.5749 85.8752 3.3999 82.9502 3.3999 80.0002V79.8502C3.3999 79.8252 3.3999 79.8252 3.3999 79.8002C3.3999 37.5002 37.7249 3.2002 79.9999 3.2002C122.275 3.2002 156.6 37.5002 156.6 79.8002Z" fill="#FEBE00" stroke="#023857" stroke-width="6"/>
<path d="M142.175 66.0508H14.75L3.32495 90.0008H153.625L142.175 66.0508Z" fill="#0273AD" stroke="#023857" stroke-width="6"/>
<path d="M149.35 87.8V112.275C147.325 116.65 144.875 120.8 142.05 124.7C141.1 125.975 140.15 127.225 139.125 128.45C139 128.6 138.875 128.75 138.75 128.9C137.25 130.725 135.625 132.475 133.925 134.15C133.875 134.25 133.775 134.35 133.625 134.45C133.375 134.75 133.075 135.025 132.8 135.3C131.475 136.55 130.125 137.775 128.725 138.9C126.575 140.7 124.3 142.375 121.95 143.9C121.9 143.95 121.8 144 121.75 144.025C120.3 144.975 118.825 145.85 117.3 146.7C115.475 147.725 113.6 148.675 111.7 149.55C109.9 150.35 108.05 151.1 106.15 151.75C106.15 151.75 106.125 151.8 106.1 151.775C106.05 151.85 105.975 151.875 105.875 151.875C103.6 152.7 101.275 153.4 98.8999 154C97.4249 154.4 95.9249 154.725 94.4249 155C89.7749 155.925 84.9499 156.375 79.9999 156.375C75.0499 156.375 70.2249 155.925 65.5749 155C63.6999 154.65 61.8249 154.225 59.9999 153.725C57.9749 153.2 55.9999 152.575 54.0749 151.875C54.0249 151.875 53.9999 151.85 53.9999 151.85H53.9749C52.0499 151.15 50.1499 150.375 48.2999 149.55C46.3749 148.675 44.4999 147.725 42.6749 146.7C41.2749 145.925 39.9249 145.1 38.5749 144.225C38.5249 144.2 38.4999 144.175 38.4499 144.15C35.9499 142.55 33.5749 140.825 31.2999 138.9C29.8499 137.75 28.4499 136.5 27.0999 135.2L26.9749 135.075C26.9749 135.075 26.9749 135.075 26.9499 135.075C26.8249 134.925 26.7499 134.85 26.6499 134.75C24.7249 132.9 22.8999 130.95 21.2249 128.9C20.7249 128.325 20.2499 127.75 19.7749 127.15C19.1499 126.35 18.5249 125.525 17.9249 124.7C15.4249 121.25 13.2249 117.625 11.3249 113.8C10.8249 112.8 10.3499 111.775 9.8999 110.75V87.8H43.0749L79.9999 50.875L94.8999 66.05L116.275 87.8H149.35Z" fill="#40C078" stroke="#023857" stroke-width="6"/>
<path d="M93.6249 124.726H65.5999V144.501H93.6249V124.726Z" stroke="#023857" stroke-width="6"/>
<path d="M98.9 146.476V154.001C97.425 154.401 95.925 154.726 94.425 155.001C89.775 155.926 84.95 156.376 80 156.376C75.05 156.376 70.225 155.926 65.575 155.001C63.7 154.651 61.825 154.226 60 153.726V146.476H98.9Z" stroke="#023857" stroke-width="6"/>
<path d="M53.0749 100.65H19.7749V114.825H53.0749V100.65Z" stroke="#023857" stroke-width="6"/>
<path d="M36.4248 100.65V114.825" stroke="#023857" stroke-width="6"/>
<path d="M139.125 100.65H105.825V114.825H139.125V100.65Z" stroke="#023857" stroke-width="6"/>
<path d="M122.475 100.65V114.825" stroke="#023857" stroke-width="6"/>
<path d="M139.125 124.726V128.451C139 128.601 138.875 128.751 138.75 128.901C137.25 130.726 135.625 132.476 133.925 134.151C133.875 134.251 133.775 134.351 133.625 134.451C133.375 134.751 133.075 135.026 132.8 135.301C131.475 136.551 130.125 137.776 128.725 138.901H105.825V124.726H139.125Z" stroke="#023857" stroke-width="6"/>
<path d="M122.475 124.726V138.901" stroke="#023857" stroke-width="6"/>
<path d="M53.0749 124.726V138.901H31.2999C29.8499 137.751 28.4499 136.501 27.0999 135.201L26.9749 135.076C26.9749 135.076 26.9749 135.076 26.9499 135.076C26.8249 134.926 26.7499 134.851 26.6499 134.751C24.7249 132.901 22.8999 130.951 21.2249 128.901C20.7249 128.326 20.2499 127.751 19.7749 127.151V124.726H53.0749Z" stroke="#023857" stroke-width="6"/>
<path d="M36.4248 124.726V138.901" stroke="#023857" stroke-width="6"/>
<path d="M80 124.726V144.501" stroke="#023857" stroke-width="6"/>
<path d="M79.7 23.5254V50.8754" stroke="#023857" stroke-width="6"/>
<path d="M96.925 23.5254H79.625V37.2004H96.925V23.5254Z" fill="#FE415B" stroke="#023857" stroke-width="6"/>
</g>
<defs>
<clipPath id="clip0_682_3835">
<rect width="160" height="160" fill="white"/>
</clipPath>
</defs>
</svg>
