<svg width="161" height="160" viewBox="0 0 161 160" fill="none" xmlns="http://www.w3.org/2000/svg">
<g clip-path="url(#clip0_682_3739)">
<path d="M149.825 87.2498C149.825 107 141.55 124.85 128.3 137.5C118.85 146.475 106.9 152.825 93.575 155.35C89.35 156.175 84.975 156.575 80.5 156.575C76.025 156.575 71.65 156.175 67.425 155.35C54.05 152.825 42.05 146.425 32.6 137.4C19.4 124.775 11.175 106.975 11.175 87.2498C11.175 48.9748 42.225 17.9248 80.5 17.9248C118.775 17.9248 149.825 48.9748 149.825 87.2498Z" fill="#40C078" stroke="#023857" stroke-width="6"/>
<path d="M131.6 133.8C121.5 143.4 108.725 152.575 94.4751 155.275L80.5 156.6L66.525 155.275C52.225 152.575 39.4 143.35 29.3 133.7C35.275 110.875 56.8251 109.925 56.8251 109.925H57.925C57.925 109.925 57.925 109.925 57.95 109.925L71.175 109.95L89.65 109.975L103.225 110H104C120.65 111.325 128.2 122.975 131.6 133.8Z" fill="#0273AD" stroke="#023857" stroke-width="6"/>
<path d="M49.9501 59.5246L20.575 43.4996C19.45 42.8746 19.4501 41.2746 20.5501 40.6496L79.15 7.64961C79.65 7.37461 80.2751 7.37461 80.7751 7.64961L140.025 42.0246C141.15 42.6746 141.1 44.2996 139.95 44.8996L111.15 59.5246" fill="#0273AD"/>
<path d="M49.9501 59.5246L20.575 43.4996C19.45 42.8746 19.4501 41.2746 20.5501 40.6496L79.15 7.64961C79.65 7.37461 80.2751 7.37461 80.7751 7.64961L140.025 42.0246C141.15 42.6746 141.1 44.2996 139.95 44.8996L111.15 59.5246" stroke="#023857" stroke-width="6"/>
<path d="M110.225 103.7C133.025 79.7001 107.175 54.8251 107.175 54.8251L105.65 51.1501C76.625 42.3001 55.25 51.1501 55.25 51.1501L54.025 54.8251C26.225 84.1501 50.35 103.7 50.35 103.7C50.35 103.7 80.1 135.4 110.225 103.7Z" fill="#FB7B03" stroke="#023857" stroke-width="6"/>
<path d="M55.475 50.4996V40.9996C55.475 37.7746 58.1 35.1496 61.325 35.1496L68.875 34.3246C76.25 33.4996 83.675 33.4746 91.05 34.2496L100.025 35.1746C103.25 35.1746 105.875 37.7996 105.875 41.0246V50.5246" stroke="#023857" stroke-width="6"/>
<path d="M68.95 95.9746V108.45" stroke="#023857" stroke-width="6"/>
<path d="M59.275 70.6504C59.275 70.6504 52.275 70.2004 51.225 76.6004C50.2 83.0254 55.825 85.7754 60.35 84.2254" fill="#F9D7AF"/>
<path d="M59.275 70.6504C59.275 70.6504 52.275 70.2004 51.225 76.6004C50.2 83.0254 55.825 85.7754 60.35 84.2254" stroke="#023857" stroke-width="6"/>
<path d="M102.325 70.75C102.325 70.75 109.325 70.3 110.375 76.7C111.425 83.1 105.775 85.875 101.25 84.325" fill="#F9D7AF"/>
<path d="M102.325 70.75C102.325 70.75 109.325 70.3 110.375 76.7C111.425 83.1 105.775 85.875 101.25 84.325" stroke="#023857" stroke-width="6"/>
<path d="M92.125 95.9746V108.45" stroke="#023857" stroke-width="6"/>
<path d="M92 109V95.5C81.2 103.5 72.1667 98.8333 69 95.5V106L81 118L92 109Z" fill="#FFF8F0"/>
<path d="M64.0081 102.752L56.8311 109.929L73.2535 126.351L80.4305 119.174L64.0081 102.752Z" fill="#F2F3F4" stroke="#023857" stroke-width="6"/>
<path d="M80.5005 119.096L87.6776 126.273L103.976 109.975L96.7992 102.798L80.5005 119.096Z" fill="#F2F3F4" stroke="#023857" stroke-width="6"/>
<path d="M29.275 35.7246V62.6246" stroke="#023857" stroke-width="6" stroke-linecap="round"/>
<path d="M33.95 62.625H25.475V82.325H33.95V62.625Z" fill="#FEBE00" stroke="#023857" stroke-width="6" stroke-linecap="round"/>
<path d="M74.925 56.8254C73.875 59.9754 70.675 65.8004 61.175 66.4004C60.575 66.4504 60.05 66.8504 59.925 67.4754C58.975 72.9754 55.825 98.8004 80.475 98.5254C104.65 98.2504 102.25 73.8504 101.275 67.8004C101.15 67.0754 100.475 66.6004 99.75 66.7504C95.125 67.6754 79.3 69.8254 75.8 56.8754C75.7 56.4004 75.075 56.3754 74.925 56.8254Z" fill="#FFF8F0" stroke="#023857" stroke-width="6"/>
</g>
<defs>
<clipPath id="clip0_682_3739">
<rect width="160" height="160" fill="white" transform="translate(0.5)"/>
</clipPath>
</defs>
</svg>
