<svg width="42" height="42" viewBox="0 0 42 42" fill="none" xmlns="http://www.w3.org/2000/svg">
<g clip-path="url(#clip0_922_1671)">
<path d="M1.37813 11.3535C1.64063 11.616 2.03438 11.616 2.29688 11.3535C2.55938 11.091 2.55938 10.6973 2.29688 10.4348L1.11563 9.25352C0.853126 8.99102 0.459375 8.99102 0.196875 9.25352C-0.065625 9.51602 -0.065625 9.90977 0.196875 10.1723L1.37813 11.3535Z" fill="#F3F3F3"/>
<path d="M40 39.8652L38.9032 33.2874C38.8387 32.965 38.5161 32.707 38.129 32.7715C37.8064 32.836 37.5484 33.1584 37.6129 33.5454L37.871 35.0931L34.4516 38.511L29.0323 37.6081V35.2221L31.4839 35.5445C31.6774 35.5445 31.871 35.48 32 35.351C32.129 35.2221 32.1935 35.0286 32.1935 34.8351L31.871 32.5135L34.1935 32.836C34.3871 32.836 34.5806 32.7715 34.7097 32.6425C34.8387 32.5135 34.9032 32.3201 34.9032 32.1266L34.6452 29.6761H37.0323L37.2903 31.0948C37.3548 31.4172 37.6774 31.6752 38.0645 31.6107C38.5161 31.5462 38.6452 31.0948 38.5806 30.8368C38.5806 30.8368 38.2581 28.7732 38.2581 28.7087L21.6129 12.1997C21.3548 11.9417 20.9677 11.9417 20.7097 12.1997C20.4516 12.4576 20.4516 12.8446 20.7097 13.1025L35.9355 28.3863H34.129L13.4839 7.74998L14.3871 6.84714L15.9355 8.39487C16.1935 8.65282 16.5806 8.65282 16.8387 8.39487C17.0968 8.13691 17.0968 7.74998 16.8387 7.49203L12.129 2.78437C10.7742 1.43011 9.03226 0.65625 7.09677 0.65625C4.12903 0.65625 2.06452 2.71988 2.06452 2.71988C0.774193 4.07414 0 5.87982 0 7.74998C0 9.62015 0.709677 11.4258 2.06452 12.7801L28.0645 38.7689C28.129 38.8334 39.2258 40.6391 39.2258 40.6391C39.4194 40.7036 39.6129 40.5746 39.8065 40.4456C39.9355 40.3167 40 40.0587 40 39.8652ZM33.2903 29.3536L33.6129 31.4817L31.4839 31.1593L10.7742 10.523L12.5806 8.71731L33.2903 29.3536ZM3.03226 11.8772C1.87097 10.7809 1.29032 9.2977 1.29032 7.74998C1.29032 6.20226 1.87097 4.78351 2.96774 3.68721C3.03226 3.68721 4.3871 1.94602 7.09677 1.94602C8.64516 1.94602 10.129 2.52642 11.2258 3.62272L11.6774 4.07414L3.48387 12.3287L3.03226 11.8772ZM4.3871 13.2315L12.5806 5.04147L13.4839 5.9443L5.29032 14.1343L4.3871 13.2315ZM18.6452 23.8721C18.3871 23.6141 18 23.6141 17.7419 23.8721C17.4839 24.13 17.4839 24.517 17.7419 24.7749L27.7419 34.7706V36.5763L6.19355 15.0372L7.09677 14.1343L15.871 22.9048C16.129 23.1627 16.5161 23.1627 16.7742 22.9048C17.0323 22.6468 17.0323 22.2599 16.7742 22.0019L8 13.2315L9.80645 11.4258L30.5161 32.1266L30.8387 34.2547L28.7097 33.9323L18.6452 23.8721ZM36 38.7689L38.129 36.6408L38.5806 39.2203L36 38.7689Z" fill="#F3F3F3"/>
<path d="M1.36766 4.65977C-0.0104645 6.03789 -0.404215 8.13789 0.44891 9.84414C0.58016 10.1723 0.97391 10.3035 1.30204 10.1723C1.69579 10.041 1.76141 9.58164 1.63016 9.31914C1.03954 8.07227 1.30204 6.56289 2.28641 5.57852C2.54891 5.31602 2.54891 4.92227 2.28641 4.65977C2.02391 4.39727 1.63016 4.39727 1.36766 4.65977Z" fill="#F3F3F3"/>
</g>
<defs>
<clipPath id="clip0_922_1671">
<rect width="42" height="42" fill="white"/>
</clipPath>
</defs>
</svg>
