<svg width="160" height="155" viewBox="0 0 160 155" fill="none" xmlns="http://www.w3.org/2000/svg">
<path d="M156.6 77.4999C156.6 88.7332 154.05 99.383 149.45 108.939C147.4 113.242 144.9 117.327 142.05 121.169C139.625 124.427 136.925 127.515 133.95 130.36C133.9 130.457 133.8 130.554 133.625 130.676C133.375 130.968 133.1 131.211 132.8 131.503C129.45 134.615 125.825 137.411 121.95 139.843C121.9 139.891 121.825 139.94 121.775 139.964C118.575 141.982 115.2 143.781 111.7 145.338C109.9 146.14 108.05 146.845 106.15 147.502C106.15 147.502 106.125 147.55 106.1 147.526C106.05 147.575 105.975 147.599 105.9 147.599C102.2 148.912 98.3749 149.933 94.4249 150.663C89.7749 151.562 84.9499 152 79.9999 152C75.0499 152 70.2249 151.562 65.5749 150.663C61.6249 149.933 57.7499 148.912 54.0499 147.599C54.0249 147.599 53.9999 147.575 53.9999 147.575H53.9749C52.0499 146.918 50.1499 146.164 48.2999 145.338C44.9249 143.854 41.6749 142.128 38.5749 140.183C38.5249 140.159 38.4999 140.134 38.4499 140.11C34.3749 137.557 30.5749 134.639 27.0999 131.405L26.9749 131.284C26.9749 131.284 26.9749 131.284 26.9499 131.284C26.8499 131.162 26.7749 131.089 26.6499 130.968C23.4499 127.953 20.5249 124.695 17.9249 121.169C15.4249 117.838 13.2249 114.312 11.3249 110.592C6.2499 100.623 3.3999 89.3654 3.3999 77.4999C3.3999 36.3839 37.7249 3 79.9999 3C122.275 3 156.6 36.3839 156.6 77.4999Z" fill="#0273AD" stroke="#023857" stroke-width="6"/>
<path d="M52.0249 107.188V62.4493C52.0249 55.8114 53.9999 49.2222 58.1499 43.9459C62.2999 38.694 69.0749 33.8311 79.9749 33.8311C89.8749 33.8311 96.5749 37.843 101.025 42.5357C106.375 48.1767 109.05 55.7628 109.05 63.4462V108.331" fill="#FB7B03"/>
<path d="M52.0249 107.188V62.4493C52.0249 55.8114 53.9999 49.2222 58.1499 43.9459C62.2999 38.694 69.0749 33.8311 79.9749 33.8311C89.8749 33.8311 96.5749 37.843 101.025 42.5357C106.375 48.1767 109.05 55.7628 109.05 63.4462V108.331" stroke="#023857" stroke-width="6"/>
<path d="M111.7 108.332V145.339C109.9 146.141 108.05 146.846 106.15 147.503C106.15 147.503 106.125 147.551 106.1 147.527C106.05 147.575 105.975 147.6 105.9 147.6C102.2 148.913 98.3748 149.934 94.4248 150.663C89.7748 151.563 84.9498 152.001 79.9998 152.001C75.0498 152.001 70.2248 151.563 65.5748 150.663C61.6248 149.934 57.7498 148.913 54.0498 147.6C54.0248 147.6 53.9998 147.575 53.9998 147.575H53.9748C52.0498 146.919 50.1498 146.165 48.2998 145.339V108.332L52.0248 107.165H52.0498L58.8748 105.074L69.4498 101.815H90.5748L101.9 105.317L109.05 107.505L111.7 108.332Z" fill="#FE415B" stroke="#023857" stroke-width="6"/>
<path d="M79.9998 116.039V152" stroke="#023857" stroke-width="6"/>
<path d="M69.6748 87.5908L69.4248 103.176L79.9998 116.039L90.5748 103.176V88.6363" fill="#FFF8F0"/>
<path d="M69.6748 87.5908L69.4248 103.176L79.9998 116.039L90.5748 103.176V88.6363" stroke="#023857" stroke-width="6"/>
<path d="M64.4999 58.0723L71.1499 54.8385C71.7749 54.5467 72.3249 54.1576 72.7999 53.6713L75.4749 51.0697C76.6749 49.9026 78.2999 49.2461 79.9749 49.2461C81.6749 49.2461 83.2999 49.9026 84.4749 51.0697L87.1499 53.6713C87.6249 54.1333 88.1999 54.5467 88.7999 54.8385L95.6499 58.1695C97.4999 59.0692 98.7999 60.7712 99.0999 62.765C100.225 70.1323 100.825 87.8333 81.6499 92.5504C80.4749 92.8422 79.2499 92.7692 78.0999 92.3559C72.8749 90.5323 58.6499 83.6269 60.9499 62.9595C61.2249 60.8685 62.5499 59.0206 64.4999 58.0723Z" fill="#FFF8F0" stroke="#023857" stroke-width="6"/>
<path d="M53.9999 140.231V147.574H53.9749C52.0499 146.917 50.1499 146.163 48.2999 145.337C44.9249 143.854 41.6749 142.127 38.5749 140.182C38.5249 140.158 38.4999 140.133 38.4499 140.109C34.3749 137.556 30.5749 134.638 27.0999 131.405L26.9749 131.283C26.9749 131.283 26.9749 131.283 26.9499 131.283C26.8499 131.161 26.7749 131.088 26.6499 130.967C27.9999 130.578 28.9499 129.338 28.9499 127.903V124.791C28.9499 124.791 28.9499 124.791 28.9749 124.791L40.6249 124.062V127.198C40.6249 127.271 40.6249 127.344 40.6499 127.441C40.7499 129.143 42.1999 130.456 43.9749 130.456C44.7999 130.456 45.5499 130.554 46.3249 130.748C46.9999 130.894 47.6749 131.137 48.2999 131.453C51.1999 132.79 53.3499 135.489 53.8499 138.675C53.8999 138.918 53.9249 139.112 53.9499 139.331C53.9749 139.623 53.9999 139.915 53.9999 140.231Z" fill="#FFF8F0" stroke="#023857" stroke-width="6"/>
<path d="M53.975 147.575C52.05 146.918 50.15 146.165 48.2999 145.338C44.9249 143.855 41.675 142.128 38.575 140.183C39.075 140.062 39.5249 139.843 39.9499 139.624C44.2499 137.338 44.8 131.795 44.8 131.795C45.25 131.77 45.675 131.795 46.075 131.843C46.9 131.941 47.6249 132.232 48.2999 132.597C52.9999 135.32 53.825 144.195 53.975 147.575Z" fill="#40C078"/>
<path d="M54.075 147.599V140.62C54.075 140.183 54.05 139.745 53.975 139.307C53.95 139.064 53.925 138.87 53.875 138.651C53.25 135.587 51.15 133.083 48.325 131.794C47.7 131.478 46.975 131.259 46.275 131.089C45.55 130.919 44.8 130.822 44.025 130.822C42.175 130.822 40.675 129.363 40.675 127.564V127.442V125.083V124.476" stroke="#023857" stroke-width="6"/>
<path d="M26.95 131.26C26.975 131.26 26.975 131.26 26.975 131.26C28.175 130.749 28.975 129.582 28.975 128.245V125.133" stroke="#023857" stroke-width="6"/>
<path d="M54.325 121.169H15.875C13.35 121.169 11.325 119.175 11.325 116.744V103.2C11.325 90.4352 21.975 80.0771 35.1 80.0771C48.225 80.0771 58.875 90.4352 58.875 103.2V116.744C58.875 119.175 56.825 121.169 54.325 121.169Z" fill="#FB7B03" stroke="#023857" stroke-width="6"/>
<path d="M35.0999 126.299C27.7999 126.299 21.8999 120.366 21.8999 113.023V100.817C21.8999 98.9692 23.6749 97.6319 25.4499 98.1668L46.3499 104.464C47.5249 104.805 48.3249 105.899 48.3249 107.115V113.023C48.2999 120.366 42.3999 126.299 35.0999 126.299Z" fill="#FFF8F0" stroke="#023857" stroke-width="6"/>
<path d="M38.45 140.11C38.975 139.988 39.4749 139.818 39.9499 139.624C43.8749 138.019 45.4 134.591 46.075 131.843C46.15 131.576 46.2 131.332 46.225 131.089C46.25 130.968 46.275 130.822 46.3 130.725" stroke="#023857" stroke-width="6"/>
<path d="M133.925 130.36C133.875 130.457 133.775 130.554 133.6 130.676C133.35 130.968 133.075 131.211 132.775 131.503C129.45 134.615 125.825 137.411 121.95 139.843C121.9 139.891 121.825 139.94 121.775 139.964C118.575 141.982 115.2 143.782 111.7 145.338C109.9 146.14 108.05 146.845 106.15 147.502C106.15 147.502 106.125 147.55 106.1 147.526V140.912C106.1 138.213 107.225 135.782 109.05 134.007C109.825 133.253 110.725 132.645 111.7 132.159C111.95 132.038 112.2 131.916 112.475 131.843C112.9 131.673 113.325 131.527 113.775 131.43C114.55 131.235 115.35 131.114 116.175 131.114C118.025 131.114 119.525 129.679 119.525 127.88V124.768L131.2 124.038V127.175C131.2 127.248 131.2 127.321 131.225 127.418C131.3 128.925 132.45 130.141 133.925 130.36Z" fill="#FFF8F0" stroke="#023857" stroke-width="6"/>
<path d="M121.95 139.842C121.9 139.891 121.825 139.94 121.775 139.964C118.575 141.982 115.2 143.781 111.7 145.337C109.9 146.14 108.05 146.845 106.15 147.501C106.15 147.501 106.125 147.55 106.1 147.526C106.05 147.574 105.975 147.599 105.9 147.599C105.65 145.726 105.8 144 106.1 142.42C106.1 142.347 106.125 142.274 106.15 142.176C107.2 137.362 110.25 133.958 111.675 132.572C111.675 132.572 111.675 132.572 111.7 132.572V132.548C112.175 132.086 112.475 131.843 112.475 131.843C112.475 131.843 112.525 131.94 112.625 132.159C113.175 133.156 115.225 136.39 119 138.554C119.85 139.064 120.85 139.526 121.95 139.842Z" fill="#FE415B"/>
<path d="M133.625 130.676C132.225 130.311 131.225 129.047 131.225 127.564V127.442V125.083V124.476" stroke="#023857" stroke-width="6"/>
<path d="M119.55 125.156V128.269C119.55 130.068 118.05 131.527 116.2 131.527C115.4 131.527 114.65 131.6 113.9 131.818C113.475 131.891 113.025 132.013 112.625 132.183C112.3 132.305 112 132.451 111.7 132.572V132.597C111.675 132.597 111.675 132.597 111.675 132.597C110.7 133.058 109.825 133.691 109.075 134.42C107.25 136.195 106.15 138.627 106.15 141.325V142.201V147.526" stroke="#023857" stroke-width="6"/>
<path d="M144.875 121.169H106.45C103.925 121.169 101.9 119.175 101.9 116.744V103.2C101.9 90.4352 112.55 80.0771 125.675 80.0771C138.8 80.0771 149.45 90.4352 149.45 103.2V116.744C149.425 119.175 147.375 121.169 144.875 121.169Z" fill="#FEBE00" stroke="#023857" stroke-width="6"/>
<path d="M125.65 126.299C118.35 126.299 112.45 120.366 112.45 113.023V100.817C112.45 98.9692 114.225 97.6319 116 98.1668L136.9 104.464C138.075 104.805 138.875 105.899 138.875 107.115V113.023C138.85 120.366 132.95 126.299 125.65 126.299Z" fill="#FFF8F0" stroke="#023857" stroke-width="6"/>
<path d="M121.75 139.964C120.725 139.599 119.8 139.113 118.975 138.554C115.8 136.341 114.3 132.913 113.875 131.794C113.8 131.551 113.75 131.43 113.75 131.43" stroke="#023857" stroke-width="6"/>
</svg>
